<svg width="256" height="256" viewBox="0 0 256 256" fill="none" xmlns="http://www.w3.org/2000/svg">
<path d="M1.40674 19.5223C1.40674 9.51872 9.77492 1.40625 20.096 1.40625H235.617C245.939 1.40625 254.307 9.51872 254.307 19.5223V236.19C254.307 246.197 245.939 254.306 235.617 254.306H20.096C9.77492 254.306 1.40674 246.197 1.40674 236.19V19.5223Z" fill="white"/>
<path d="M58.9698 83.3202C72.2892 83.3202 80.5815 74.5502 80.5815 63.5912C80.3342 52.3849 72.292 43.8594 59.2227 43.8594C46.1562 43.8594 37.6138 52.3849 37.6138 63.5912C37.6138 74.5502 45.9033 83.3202 58.7225 83.3202H58.9698Z" fill="#0077B5"/>
<path d="M78.0693 213.109V98.9102H39.8701V213.109H78.0693Z" fill="#0077B5"/>
<path d="M99.2061 213.109H137.405V149.336C137.405 145.922 137.652 142.513 138.661 140.074C141.423 133.254 147.707 126.193 158.261 126.193C172.083 126.193 177.613 136.666 177.613 152.017V213.109H215.807V147.63C215.807 112.553 196.963 96.2324 171.83 96.2324C151.225 96.2324 142.177 107.678 137.149 115.472H137.405V98.9104H99.2061C99.7062 109.628 99.2061 213.109 99.2061 213.109Z" fill="#0077B5"/>
</svg>
